ffmpeg version 7.1.1 Copyright (c) 2000-2025 the FFmpeg developers
  built with Apple clang version 17.0.0 (clang-1700.0.13.3)
  configuration: --prefix=/opt/homebrew/Cellar/ffmpeg/7.1.1_5 --enable-shared --enable-pthreads --enable-version3 --cc=clang --host-cflags= --host-ldflags='-Wl,-ld_classic' --enable-ffplay --enable-gnutls --enable-gpl --enable-libaom --enable-libaribb24 --enable-libbluray --enable-libdav1d --enable-libharfbuzz --enable-libjxl --enable-libmp3lame --enable-libopus --enable-librav1e --enable-librist --enable-librubberband --enable-libsnappy --enable-libsrt --enable-libssh --enable-libsvtav1 --enable-libtesseract --enable-libtheora --enable-libvidstab --enable-libvmaf --enable-libvorbis --enable-libvpx --enable-libwebp --enable-libx264 --enable-libx265 --enable-libxml2 --enable-libxvid --enable-lzma --enable-libfontconfig --enable-libfreetype --enable-frei0r --enable-libass --enable-libopencore-amrnb --enable-libopencore-amrwb --enable-libopenjpeg --enable-libspeex --enable-libsoxr --enable-libzmq --enable-libzimg --disable-libjack --disable-indev=jack --enable-videotoolbox --enable-audiotoolbox --enable-neon
  libavutil      59. 39.100 / 59. 39.100
  libavcodec     61. 19.101 / 61. 19.101
  libavformat    61.  7.100 / 61.  7.100
  libavdevice    61.  3.100 / 61.  3.100
  libavfilter    10.  4.100 / 10.  4.100
  libswscale      8.  3.100 /  8.  3.100
  libswresample   5.  3.100 /  5.  3.100
  libpostproc    58.  3.100 / 58.  3.100
Input #0, matroska,webm, from 'uploads/a2e1c7382fc0ef5309bb3eb2dc1234c8':
  Metadata:
    encoder         : WebKit
  Duration: N/A, start: 0.000000, bitrate: N/A
  Stream #0:0(eng): Video: vp9 (Profile 0), yuv420p(tv), 6144x3417, SAR 1:1 DAR 2048:1139, 1k tbr, 1k tbn (default)
Stream mapping:
  Stream #0:0 -> #0:0 (vp9 (native) -> prores (prores_ks))
Press [q] to stop, [?] for help
Output #0, mov, to 'uploads/converted-1756158288516.mov':
  Metadata:
    encoder         : Lavf61.7.100
  Stream #0:0(eng): Video: prores (HQ) (apch / 0x68637061), yuv422p10le(tv, progressive), 6144x3417 [SAR 1:1 DAR 2048:1139], q=2-31, 200 kb/s, 1k fps, 16k tbn (default)
      Metadata:
        encoder         : Lavc61.19.101 prores_ks
frame=    0 fps=0.0 q=0.0 size=       0KiB time=N/A bitrate=N/A speed=N/A    frame=    2 fps=2.0 q=-0.0 size=     512KiB time=00:00:00.03 bitrate=107553.6kbits/s speed=0.0381x    frame=   14 fps=9.2 q=-0.0 size=    8192KiB time=00:00:00.35 bitrate=186933.6kbits/s speed=0.235x    frame=   25 fps= 12 q=-0.0 size=   15616KiB time=00:00:00.57 bitrate=222094.7kbits/s speed=0.283x    frame=   30 fps= 12 q=-0.0 size=   18944KiB time=00:00:00.69 bitrate=224262.3kbits/s speed=0.272x    frame=   42 fps= 14 q=-0.0 size=   27136KiB time=00:00:00.94 bitrate=235485.6kbits/s speed=0.31x    frame=   54 fps= 15 q=-0.0 size=   35072KiB time=00:00:01.18 bitrate=243483.1kbits/s speed=0.332x    frame=   57 fps= 14 q=-0.0 size=   37120KiB time=00:00:01.25 bitrate=243269.9kbits/s speed=0.308x    frame=   70 fps= 15 q=-0.0 size=   45568KiB time=00:00:01.51 bitrate=247214.1kbits/s speed=0.331x    frame=   83 fps= 16 q=-0.0 size=   54016KiB time=00:00:01.77 bitrate=249014.8kbits/s speed=0.351x    frame=   86 fps= 15 q=-0.0 size=   55808KiB time=00:00:01.86 bitrate=245531.4kbits/s speed=0.334x    frame=   98 fps= 16 q=-0.0 size=   63232KiB time=00:00:02.10 bitrate=246547.8kbits/s speed=0.346x    frame=  110 fps= 17 q=-0.0 size=   70656KiB time=00:00:02.39 bitrate=241777.0kbits/s speed=0.363x    frame=  117 fps= 16 q=-0.0 size=   75008KiB time=00:00:02.51 bitrate=244709.6kbits/s speed=0.354x    frame=  126 fps= 17 q=-0.0 size=   80384KiB time=00:00:02.70 bitrate=243710.6kbits/s speed=0.355x    frame=  138 fps= 17 q=-0.0 size=   87296KiB time=00:00:02.95 bitrate=242334.5kbits/s speed=0.364x    frame=  145 fps= 17 q=-0.0 size=   91392KiB time=00:00:03.09 bitrate=241979.2kbits/s speed=0.359x    frame=  154 fps= 17 q=-0.0 size=   96768KiB time=00:00:03.29 bitrate=240656.9kbits/s speed=0.361x    frame=  163 fps= 17 q=-0.0 size=  102144KiB time=00:00:03.48 bitrate=239829.2kbits/s speed=0.362x    frame=  172 fps= 17 q=-0.0 size=  107776KiB time=00:00:03.69 bitrate=239009.6kbits/s speed=0.364x    frame=  179 fps= 17 q=-0.0 size=  112128KiB time=00:00:03.84 bitrate=238957.6kbits/s speed=0.361x    frame=  187 fps= 17 q=-0.0 size=  117248KiB time=00:00:04.02 bitrate=238454.8kbits/s speed=0.361x    frame=  190 fps= 16 q=-0.0 size=  119296KiB time=00:00:04.09 bitrate=238766.9kbits/s speed=0.351x    frame=  199 fps= 16 q=-0.0 size=  124672KiB time=00:00:04.29 bitrate=237846.6kbits/s speed=0.353x    frame=  208 fps= 16 q=-0.0 size=  130304KiB time=00:00:04.49 bitrate=237475.1kbits/s speed=0.355x    frame=  217 fps= 16 q=-0.0 size=  135936KiB time=00:00:04.69 bitrate=236984.0kbits/s speed=0.357x    frame=  222 fps= 16 q=-0.0 size=  139008KiB time=00:00:04.81 bitrate=236697.9kbits/s speed=0.352x    frame=  234 fps= 17 q=-0.0 size=  146176KiB time=00:00:05.07 bitrate=235769.7kbits/s speed=0.358x    frame=  244 fps= 17 q=-0.0 size=  152576KiB time=00:00:05.31 bitrate=235342.3kbits/s speed=0.362x    frame=  253 fps= 17 q=-0.0 size=  157952KiB time=00:00:05.50 bitrate=234878.0kbits/s speed=0.363x    frame=  265 fps= 17 q=-0.0 size=  165376KiB time=00:00:05.76 bitrate=235201.5kbits/s speed=0.367x    frame=  280 fps= 17 q=-0.0 size=  174080KiB time=00:00:06.09 bitrate=233896.0kbits/s speed=0.376x    frame=  290 fps= 17 q=-0.0 size=  179968KiB time=00:00:06.31 bitrate=233533.7kbits/s speed=0.378x    frame=  305 fps= 18 q=-0.0 size=  189184KiB time=00:00:06.62 bitrate=233860.8kbits/s speed=0.385x    [out#0/mov @ 0x1286079d0] video:191747KiB audio:0KiB subtitle:0KiB other streams:0KiB global headers:0KiB muxing overhead: 0.002816%
frame=  308 fps= 18 q=-0.0 Lsize=  191752KiB time=00:00:06.68 bitrate=234908.5kbits/s speed=0.388x    
